<svg xmlns="http://www.w3.org/2000/svg" xmlns:xlink="http://www.w3.org/1999/xlink" viewBox="0 0 456 470"><defs><clipPath id="a"><rect x="-29" width="512" height="512" style="fill:none"/></clipPath></defs><title>hero</title><circle cx="241" cy="112.00391" r="97.99609" style="fill:#edf1ad"/><g style="clip-path:url(#a)"><path d="M428.33333,282.5H51.917C41.232,282.5,26.7,272.19009,26.7,259s14.75685-24,25.44182-24H428.55815C439.24311,235,450,245.80991,450,259,450.08032,272.19009,439.09866,282.5,428.33333,282.5Z" style="fill:#11bc90"/></g><g style="clip-path:url(#a)"><polyline points="378.128 306.8 68.09 306.8 68.09 277.6 378.128 277.6" style="fill:#ebf2ff"/></g><g style="clip-path:url(#a)"><path d="M235.2,308.2a11.32186,11.32186,0,0,1-1.9,6.3L137.2,457a11.233,11.233,0,0,1-18.6-12.6l92.7-137.6h23.8C235.1,307.3,235.2,307.7,235.2,308.2Z" style="fill:#fff7c3"/></g><g style="clip-path:url(#a)"><path d="M353.9,460a11.25666,11.25666,0,0,1-15.6-3L242.2,314.5a11.09057,11.09057,0,0,1-1.9-6.3,5.70155,5.70155,0,0,1,.1-1.3h23.8L357,444.4A11.28022,11.28022,0,0,1,353.9,460Z" style="fill:#edf1ad"/></g><g style="clip-path:url(#a)"><line x1="286.5" y1="461.89999" x2="366.5" y2="461.89999" style="fill:none;stroke:#000;stroke-miterlimit:10;stroke-width:12px"/></g><g style="clip-path:url(#a)"><line x1="75.9" y1="461.89999" x2="183.60001" y2="461.89999" style="fill:none;stroke:#000;stroke-miterlimit:10;stroke-width:12px"/></g><g style="clip-path:url(#a)"><path d="M25.8,241H420.3a17.1,17.1,0,0,1,17.1,17.1v1.4a17.1,17.1,0,0,1-17.1,17.1H25.8A17.1,17.1,0,0,1,8.7,259.5v-1.4A17.1,17.1,0,0,1,25.8,241Z" style="fill:none;stroke:#000;stroke-miterlimit:10;stroke-width:12px"/></g><g style="clip-path:url(#a)"><rect x="67.8" y="277.60001" width="310.49998" height="29.20001" style="fill:none;stroke:#000;stroke-miterlimit:10;stroke-width:12px"/></g><g style="clip-path:url(#a)"><path d="M220.5,308.2a11.32186,11.32186,0,0,1-1.9,6.3L122.5,457a11.233,11.233,0,0,1-18.6-12.6l92.7-137.6h23.8C220.4,307.3,220.5,307.7,220.5,308.2Z" style="fill:none;stroke:#000;stroke-miterlimit:10;stroke-width:12px"/></g><g style="clip-path:url(#a)"><path d="M339.2,460a11.25666,11.25666,0,0,1-15.6-3L227.5,314.5a11.09045,11.09045,0,0,1-1.9-6.3,5.70155,5.70155,0,0,1,.1-1.3h23.8l92.7,137.6A11.0674,11.0674,0,0,1,339.2,460Z" style="fill:none;stroke:#000;stroke-miterlimit:10;stroke-width:12px"/></g><line x1="156.21281" y1="180.79221" x2="225.50055" y2="111.50446" style="fill:none;stroke:#000;stroke-miterlimit:10;stroke-width:12px"/><circle cx="227.42834" cy="112.00391" r="97.99609" style="fill:none;stroke:#000;stroke-miterlimit:10;stroke-width:12px"/><line x1="227.42834" y1="112.00391" x2="227.42834" y2="209.99158" style="fill:none;stroke:#000;stroke-miterlimit:10;stroke-width:12px"/><circle cx="227" cy="111.00501" r="6"/><line x1="292.28775" y1="44.71616" x2="223" y2="114.00391" style="fill:none;stroke:#000;stroke-miterlimit:10;stroke-width:12px"/><line x1="227.42834" y1="112.00391" x2="315.16101" y2="155.64521" style="fill:none;stroke:#000;stroke-miterlimit:10;stroke-width:12px"/><line x1="222.58087" y1="112.31586" x2="130.29555" y2="145.25524" style="fill:none;stroke:#000;stroke-miterlimit:10;stroke-width:12px"/><path d="M300.17383,208.90039l4.957-12.60352h2.874l4.957,12.60352H310.0791l-1.08105-2.9707H304.1377l-1.08105,2.9707Zm4.86035-5.30859h3.06738l-1.5293-4.13965Z"/><path d="M314.30664,208.90039V196.29688h2.42578v12.60352Z"/><path d="M319.44531,198.53809a1.35191,1.35191,0,0,1,.9834-2.3291,1.4562,1.4562,0,0,1,1.05078.36914,1.43769,1.43769,0,0,1,0,1.96,1.4562,1.4562,0,0,1-1.05078.36914A1.322,1.322,0,0,1,319.44531,198.53809Zm-.18164,10.3623v-8.82422h2.42578v8.82422Z"/><path d="M324.98145,207.70068a4.362,4.362,0,0,1,0-6.4248,4.63584,4.63584,0,0,1,3.35254-1.37549,4.458,4.458,0,0,1,1.30566.189,3.982,3.982,0,0,1,1.01465.44824,6.85529,6.85529,0,0,1,.70313.52295,2.88677,2.88677,0,0,1,.44824.457l.13184.18457-1.5293,1.5293a2.72018,2.72018,0,0,0-.2334-.3252,2.8099,2.8099,0,0,0-.70312-.52295,2.2289,2.2289,0,0,0-2.78516.39111,2.47827,2.47827,0,0,0,.00391,3.43652,2.21973,2.21973,0,0,0,1.64355.71191,2.3691,2.3691,0,0,0,1.1377-.29,2.70521,2.70521,0,0,0,.78711-.58008l.2373-.29883,1.44141,1.5293c-.03516.04688-.083.11279-.14551.19775a3.50205,3.50205,0,0,1-.42578.43066,4.60111,4.60111,0,0,1-.7207.53613,4.826,4.826,0,0,1-1.00586.43066,4.27463,4.27463,0,0,1-1.30566.19775A4.63584,4.63584,0,0,1,324.98145,207.70068Z"/><path d="M334.38965,207.72705a4.53115,4.53115,0,0,1-.01758-6.47754,4.43139,4.43139,0,0,1,3.24316-1.34912,4.30307,4.30307,0,0,1,4.40332,4.41211l-.08789.98438H335.541a2.0199,2.0199,0,0,0,.76465,1.21729,2.44755,2.44755,0,0,0,1.57324.49658,3.00735,3.00735,0,0,0,1.26953-.26807,2.46292,2.46292,0,0,0,.82227-.54053l.25488-.27246,1.25684,1.61719-.1582.1582a4.77917,4.77917,0,0,1-.47461.37793,5.62933,5.62933,0,0,1-.76465.47021,4.93123,4.93123,0,0,1-1.0498.36475,5.58749,5.58749,0,0,1-1.332.1582A4.55158,4.55158,0,0,1,334.38965,207.72705Zm1.15137-4.13525h4.05176a2.00516,2.00516,0,0,0-.67285-1.16016,1.93163,1.93163,0,0,0-1.30469-.457,1.99382,1.99382,0,0,0-1.31445.44824A2.386,2.386,0,0,0,335.541,203.5918Z"/><path d="M25.67822,73.61768a8.21514,8.21514,0,0,1,0-11.86475,9.05605,9.05605,0,0,1,8.63086-2.12842,7.21015,7.21015,0,0,1,1.88086.80322,13.02422,13.02422,0,0,1,1.30273.94336,5.30238,5.30238,0,0,1,.81445.79736l.2583.33691-2.18994,2.18994c-.04492-.06006-.10645-.144-.18555-.25244a5.15007,5.15007,0,0,0-.52734-.55615,5.3415,5.3415,0,0,0-.89307-.69092,5.86438,5.86438,0,0,0-1.269-.5498,5.20278,5.20278,0,0,0-1.606-.25293,5.29,5.29,0,1,0,0,10.5791,5.74407,5.74407,0,0,0,1.96533-.32031,3.89144,3.89144,0,0,0,1.24658-.64551l.34814-.292V69.52441h-2.875V66.99756h6.32275v5.97461c-.06006.07471-.15527.18555-.28662.33105a8.47749,8.47749,0,0,1-.86426.75293,9.96089,9.96089,0,0,1-1.415.94336,9.37678,9.37678,0,0,1-1.9541.74658,9.21422,9.21422,0,0,1-2.48779.33691A8.57152,8.57152,0,0,1,25.67822,73.61768Z"/><path d="M42.002,75.73486V64.45947h3.09961v1.38135q.13477-.15747.38184-.40967a4.49,4.49,0,0,1,1.0835-.66846,3.90611,3.90611,0,0,1,1.75781-.41553h.46045V67.458a3.78294,3.78294,0,0,0-1.0332-.12354,2.50248,2.50248,0,0,0-1.937.7749,3.16769,3.16769,0,0,0-.71338,2.22363v5.40186Z"/><path d="M51.55908,74.23584a5.79038,5.79038,0,0,1-.02246-8.27734,5.66285,5.66285,0,0,1,4.144-1.72363,5.498,5.498,0,0,1,5.62646,5.6377l-.1123,1.25781H53.03027a2.58142,2.58142,0,0,0,.97705,1.55566,3.12855,3.12855,0,0,0,2.01025.63428,3.852,3.852,0,0,0,1.623-.34229,3.1501,3.1501,0,0,0,1.0498-.69092l.32568-.34814,1.606,2.06641-.20215.20215a6.0909,6.0909,0,0,1-.60645.48291,7.24748,7.24748,0,0,1-.97705.60107,6.28267,6.28267,0,0,1-1.34229.46582,7.12176,7.12176,0,0,1-1.70117.20215A5.81671,5.81671,0,0,1,51.55908,74.23584Zm1.47119-5.28418h5.17725a2.56077,2.56077,0,0,0-.85889-1.48242,2.47185,2.47185,0,0,0-1.668-.584A2.5424,2.5424,0,0,0,54.002,67.458,3.038,3.038,0,0,0,53.03027,68.95166Z"/><path d="M62.228,64.45947h3.22314L68.09033,71.939l2.65039-7.47949h3.21191l-4.481,11.96045q-1.53882,4.144-4.36865,4.144a5.56253,5.56253,0,0,1-.99951-.08984,4.45337,4.45337,0,0,1-.73-.17969l-.22461-.07861V77.46436a2.6015,2.6015,0,0,0,1.14551.22461,1.96576,1.96576,0,0,0,1.9541-1.269l.34814-.79736Z"/><path d="M75.6709,75.73486V59.63037h3.09961V75.73486Z"/><path d="M82.9707,74.20166a5.61013,5.61013,0,0,1,0-8.209,5.89,5.89,0,0,1,8.39453,0,5.62167,5.62167,0,0,1,0,8.209,5.89,5.89,0,0,1-8.39453,0ZM85.228,67.97461a3.16456,3.16456,0,0,0,0,4.25049,2.6259,2.6259,0,0,0,3.88574,0,3.16456,3.16456,0,0,0,0-4.25049,2.61495,2.61495,0,0,0-3.88574,0Z"/><path d="M96.55371,74.20166a5.575,5.575,0,0,1,0-8.209,5.9277,5.9277,0,0,1,4.28467-1.75781,5.69279,5.69279,0,0,1,1.66748.24121,5.06183,5.06183,0,0,1,1.29736.57324,8.75311,8.75311,0,0,1,.89844.668,3.68108,3.68108,0,0,1,.57275.584l.16846.23584-1.9541,1.9541a3.506,3.506,0,0,0-.29736-.41553,3.61681,3.61681,0,0,0-.89844-.668,2.8499,2.8499,0,0,0-3.56055.49951,3.1678,3.1678,0,0,0,.00586,4.39111,2.83606,2.83606,0,0,0,2.1001.90967,3.035,3.035,0,0,0,1.45459-.37061,3.47285,3.47285,0,0,0,1.00488-.74121l.30322-.38184,1.8418,1.9541c-.04492.06006-.10693.144-.18506.25293a4.6123,4.6123,0,0,1-.54492.5498,5.872,5.872,0,0,1-.9209.68555,6.12357,6.12357,0,0,1-1.28613.5498,5.43362,5.43362,0,0,1-1.66748.25293A5.9277,5.9277,0,0,1,96.55371,74.20166Z"/><path d="M107.63281,75.73486V59.63037h3.09961V69.064l4.02051-4.60449H118.313l-4.24512,4.84033,4.481,6.43506h-3.44775l-2.99854-4.36865-1.37012,1.606v2.7627Z"/><path d="M342.17383,83.12109l1.9873-1.97656q.15088.17212.42383.4458a5.19963,5.19963,0,0,0,1.21973.73584,4.44455,4.44455,0,0,0,1.97656.46191,2.83228,2.83228,0,0,0,1.86426-.55859,1.76474,1.76474,0,0,0,.6709-1.418,1.41722,1.41722,0,0,0-.77832-1.24609,7.70727,7.70727,0,0,0-1.90234-.78955q-1.12207-.31641-2.23437-.74658a4.43179,4.43179,0,0,1-1.89551-1.418,3.90347,3.90347,0,0,1-.78418-2.50293,4.10868,4.10868,0,0,1,1.498-3.19043,5.6744,5.6744,0,0,1,3.89453-1.32129,7.5174,7.5174,0,0,1,1.82617.22021,6.65269,6.65269,0,0,1,1.44531.51563,8.31982,8.31982,0,0,1,.98828.60156,3.2686,3.2686,0,0,1,.60645.53174l.19336.21484-1.97656,2.09473q-.12891-.15015-.36035-.37061a4.41192,4.41192,0,0,0-.97168-.58545,3.41869,3.41869,0,0,0-1.52539-.36523,2.28611,2.28611,0,0,0-1.52051.4834,1.47981,1.47981,0,0,0-.57422,1.1709,1.40429,1.40429,0,0,0,.7793,1.24072,7.98061,7.98061,0,0,0,1.89063.78955q1.11035.32227,2.23438.752a4.424,4.424,0,0,1,1.90625,1.418,3.90441,3.90441,0,0,1,.78418,2.50293,4.42022,4.42022,0,0,1-1.55176,3.49121,6.297,6.297,0,0,1-4.28125,1.35352,8.16812,8.16812,0,0,1-2.07812-.26318,7.02369,7.02369,0,0,1-1.6543-.62842,9.77367,9.77367,0,0,1-1.14453-.74121,4.54193,4.54193,0,0,1-.709-.63379Z"/><path d="M355.47266,82.46582a3.04621,3.04621,0,0,1,.84863-2.20068,4.17482,4.17482,0,0,1,2.3418-1.14893l3.416-.61426a1.39593,1.39593,0,0,0-.49609-1.10645,2.03825,2.03825,0,0,0-1.37891-.42969,3.1814,3.1814,0,0,0-1.333.27393,2.45074,2.45074,0,0,0-.84961.564l-.248.25781L356.13672,76.418c.043-.05713.10156-.13428.17676-.231a4.96259,4.96259,0,0,1,.50488-.49951,5.24158,5.24158,0,0,1,.85352-.62842,5.69414,5.69414,0,0,1,1.21289-.50488,5.20222,5.20222,0,0,1,1.53516-.231,4.659,4.659,0,0,1,3.334,1.21924,4.04479,4.04479,0,0,1,1.29,3.06689v6.71387H362.0791v-1.0957a5.00581,5.00581,0,0,1-.36133.37061,4.258,4.258,0,0,1-1.00684.58008,4.08364,4.08364,0,0,1-4.23145-.53711A2.80885,2.80885,0,0,1,355.47266,82.46582Zm2.96484-.44434q0,1.1001,1.43262,1.09961a2.10108,2.10108,0,0,0,1.61133-.63965,2.506,2.506,0,0,0,.59766-1.77979v-.3335l-2.41895.43555Q358.437,80.9978,358.4375,82.02148Z"/><path d="M367.90137,85.32324V74.53809h2.96484v1.32129a5.52212,5.52212,0,0,1,.36523-.42432,4.53745,4.53745,0,0,1,1.03613-.68213,3.51353,3.51353,0,0,1,1.68164-.42969,3.8933,3.8933,0,0,1,3.01367,1.27832,4.926,4.926,0,0,1,1.165,3.44824v6.27344h-2.96484V79.38281a2.204,2.204,0,0,0-.585-1.59521,2.00658,2.00658,0,0,0-1.50977-.60693,2.054,2.054,0,0,0-1.60547.66064,2.69786,2.69786,0,0,0-.59668,1.87451v5.60742Z"/><path d="M380.09375,77.40625V74.76367h.98828a1.10924,1.10924,0,0,0,.85938-.39746,1.49,1.49,0,0,0,.35449-1.03125V71.3584h2.64258v3.40527h2.19141v2.64258h-2.19141v4.28613a1.14774,1.14774,0,0,0,.37012.85938,1.30715,1.30715,0,0,0,.94043.35449,2.64557,2.64557,0,0,0,.56348-.05908,2.05414,2.05414,0,0,0,.41406-.12354l.12891-.043v2.53516a5.38648,5.38648,0,0,1-1.92285.32227h-.06445q-3.394,0-3.39453-3.73828V77.40625Z"/><path d="M390.23047,72.6582a1.65281,1.65281,0,0,1,1.20215-2.84668,1.78268,1.78268,0,0,1,1.28516.45117,1.75926,1.75926,0,0,1,0,2.39551,1.78268,1.78268,0,0,1-1.28516.45117A1.61664,1.61664,0,0,1,390.23047,72.6582Zm-.22168,12.665V74.53809h2.96484V85.32324Z"/><path d="M395.93848,85.32324V74.53809h2.96484v1.32129a5.52209,5.52209,0,0,1,.36523-.42432,4.53745,4.53745,0,0,1,1.03613-.68213,3.51353,3.51353,0,0,1,1.68164-.42969A3.8933,3.8933,0,0,1,405,75.60156a4.926,4.926,0,0,1,1.165,3.44824v6.27344H403.2002V79.38281a2.204,2.204,0,0,0-.585-1.59521,2.00658,2.00658,0,0,0-1.50977-.60693,2.054,2.054,0,0,0-1.60547.66064,2.69786,2.69786,0,0,0-.59668,1.87451v5.60742Z"/><path d="M410.06445,83.85693a5.36674,5.36674,0,0,1,0-7.85254,5.63413,5.63413,0,0,1,8.0293,0,5.37724,5.37724,0,0,1,0,7.85254,5.63413,5.63413,0,0,1-8.0293,0Zm2.15918-5.95654a3.02727,3.02727,0,0,0,0,4.06592,2.51222,2.51222,0,0,0,3.7168,0,3.02727,3.02727,0,0,0,0-4.06592,2.50126,2.50126,0,0,0-3.7168,0Z"/></svg>